<svg xmlns="http://www.w3.org/2000/svg" viewBox="0 0 91.64 200.14"><defs><style>.cls-1{fill:#fff;}.cls-1,.cls-2,.cls-4{stroke:#231f20;stroke-miterlimit:10;stroke-width:2px;}.cls-2,.cls-4{fill:none;}.cls-3{fill:#231f20;}.cls-4{stroke-dasharray:12;}</style></defs><g id="Layer_2" data-name="Layer 2"><g id="Layer_1-2" data-name="Layer 1"><path class="cls-1" d="M56.79,25.31c0,.11-.08.24-.13.36a39.07,39.07,0,0,1-3.91,7.85l0,0c-.33.52-.68,1-1,1.54-.93-.36-1.87-.69-2.83-1q-2.46-.81-5-1.4h-.06c-.71-.16-1.41-.31-2.12-.44a50,50,0,0,0-9.32-.94h-.5a39.31,39.31,0,0,0-3.95.25c-.05-.92-.05-1.86,0-2.81,0-1.31.13-2.63.28-3.94a40.28,40.28,0,0,1,1.94-8.61c0-.12.09-.24.13-.35C34.13,5.37,43-1,50.29,1.57c4.54,1.61,7.36,6.36,7.94,12.29A27.28,27.28,0,0,1,56.79,25.31Z"/><path class="cls-1" d="M64.42,34.9c0,.08-.11.16-.16.25A30.45,30.45,0,0,1,60.08,40a41.89,41.89,0,0,0-8.38-4.27c-.93-.36-1.87-.69-2.83-1q-2.46-.81-5-1.4h-.06c-.71-.16-1.41-.31-2.12-.44.1-.36.2-.73.31-1.1q.42-1.47,1-2.91a30.72,30.72,0,0,1,3.18-6.09l.17-.24c3.26-4.63,7.78-7.53,11.89-8a8.48,8.48,0,0,1,6,1.29C69.21,19.13,69.25,27.66,64.42,34.9Z"/><path class="cls-2" d="M39.88,32.84a57.27,57.27,0,0,0-10-.94h-.53c-1.44,0-2.85.1-4.23.25C11.45,33.6,1,41.21,1,50.4,1,60.51,13.65,68.71,29.37,68.89h.53a60,60,0,0,0,12.31-1.39c1.81-.39,3.6-.86,5.35-1.4a48.19,48.19,0,0,0,12.85-5.82c4.23-2.86,7-6.25,7-9.89s-2.73-7-7-9.89L59.56,40"/><path class="cls-3" d="M43.87,33.29V67.51a52.53,52.53,0,0,1-11.5,1.39h-.5v-37l11.94,1.37Z"/><path class="cls-3" d="M60.87,40.51V60.29a43.65,43.65,0,0,1-12,5.82V34.69A43.65,43.65,0,0,1,60.87,40.51Z"/><circle class="cls-3" cx="17" cy="43.07" r="2.86"/><path class="cls-4" d="M4.33,199.24c42.54-19.91,63-53.94,55.34-76C52.47,102.55,19,87.84,7,97.24c-10.24,8-6.92,35.54,8,50,17.48,16.93,53.09,18.09,68.67-4.67,14-20.48,6.57-52.7-19.34-66"/></g></g></svg>