<?xml version="1.0" encoding="utf-8"?>
<!-- Generator: Adobe Illustrator 24.1.0, SVG Export Plug-In . SVG Version: 6.00 Build 0)  -->
<svg version="1.1" id="Layer_1" xmlns="http://www.w3.org/2000/svg" xmlns:xlink="http://www.w3.org/1999/xlink" x="0px" y="0px"
	 viewBox="0 0 335.5 293.3" style="enable-background:new 0 0 335.5 293.3;" xml:space="preserve">
<style type="text/css">
	.st0{fill:none;stroke:#000000;stroke-miterlimit:10;}
	.st1{fill:#FFFFFF;stroke:#231F20;stroke-miterlimit:10;}
	.st2{fill:#FFCA00;stroke:#231F20;stroke-miterlimit:10;}
	.st3{fill:none;stroke:#231F20;stroke-miterlimit:10;}
	.st4{fill:#FFFFFF;stroke:#000000;stroke-miterlimit:10;}
	.st5{fill:#FFCA00;}
	.st6{fill:#231F20;}
	.st7{fill:#FFCA00;stroke:#000000;stroke-miterlimit:10;}
	.st8{fill:#FFCA00;stroke:#231F20;stroke-width:0.5;stroke-miterlimit:10;}
	.st9{fill:#231F20;stroke:#231F20;stroke-width:0.5;stroke-miterlimit:10;}
	.st10{fill:#FFFFFF;}
</style>
<g id="Layer_2_1_">
	<g id="Layer_1-2">
		<line class="st0" x1="67.4" y1="272.4" x2="230.7" y2="272.4"/>
		<line class="st0" x1="67.4" y1="260.7" x2="230.7" y2="260.7"/>
		<g>
			<path class="st1" d="M146.3,190.4c0-8.5-1.8-16.1-4.7-21.3c2.9-5.2,4.7-12.8,4.7-21.3h28.1c0,8.5,1.8,16.1,4.7,21.3
				c-2.9,5.2-4.7,12.8-4.7,21.3H146.3z"/>
			<path class="st2" d="M152,190.4c0-8.5-1.1-16.1-2.8-21.3c1.7-5.2,2.8-12.8,2.8-21.3h16.7c0,8.5,1.1,16.1,2.8,21.3
				c-1.7,5.2-2.8,12.8-2.8,21.3H152z"/>
			<path class="st1" d="M157.9,190.4c0-8.5-0.3-16.1-0.8-21.3c0.5-5.2,0.8-12.8,0.8-21.3h4.7c0,8.5,0.3,16.1,0.8,21.3
				c-0.5,5.2-0.8,12.8-0.8,21.3H157.9z"/>
			<rect x="144.3" y="143.9" class="st2" width="31.9" height="7.2"/>
			<rect x="144.3" y="187" class="st2" width="31.9" height="7.2"/>
			<line class="st3" x1="160.3" y1="143.9" x2="160.3" y2="95"/>
		</g>
		<path class="st4" d="M224.8,278.8c0-39-19.1-75.3-14.6-92C146,154.8,151.5,77.8,151.5,77.8H252v201H224.8z"/>
		<path class="st4" d="M78.3,278.8c0-39,19.1-75.3,14.6-92c64.2-31.9,58.6-108.9,58.6-108.9H51v201H78.3z"/>
		<path class="st5" d="M268.5,115.1c-5.1,0-21.8-15.2-22.9-16.5l-2.1-2.6l0.7,3.3c0.8,3.6,4,8.4,5.7,10.7
			c-9.6-1.6-19.7-11.4-19.7-11.5l-2.6-2.6l3.9,11c-8.7-3.8-16.4-9.7-22.4-17.1l-1.8-2.5l2.1,17.1l-22.9-20l0.7,2.6
			c2,7.7,1.4,10,0.8,10.6c-0.2,0.2-0.4,0.3-0.7,0.3c-3.5,0-12.4-10.2-17.1-15.6c-3.9-4.5-4.3-4.9-4.9-4.9l-0.9,0.1l0.1,0.9l4.6,19.7
			l-23.5-18.9l1.6,3.3c2,4.1,1.5,4.9,1.5,5c0,0.1-0.2,0-0.2,0c-3.3,0-15.1-10.6-16.7-13.3l14.1-15.8l-0.8-0.5
			c-1.1-0.7-2-1.2-2.8-1.6c-0.5-0.3-1.1-0.6-1.5-1c0,0,0.1-0.1,0.3-0.3l0.5-0.5l-0.7-0.9h-0.4c-0.6,0-0.9,0.3-4,3.7
			c-2.8,3.1-8.7,9.5-10.5,9.5l0,0c0,0-0.4-0.5,0.4-3.3l0.3-1.1l-1.1,0.1c-0.8,0-2.5,1.6-11.8,11.2l-3.3,3.4l1.9-16.4l-0.7-0.3h-0.2
			c-0.7,0-0.9,0.3-3.9,4.7c-3.1,4.6-9.7,14.2-12.3,14.2c-0.2,0-0.3-0.1-0.4-0.2c-0.5-0.5-1.1-2.3-0.2-8.5l0.4-2.6L78,86.4v-14
			L76.5,75c-4.1,6.4-9.7,11.8-16.3,15.8l2.3-9.5l-2.2,2.8c0,0.1-7.1,8.6-14.5,11.1c1.6-2.7,2.8-5.7,3.4-8.8l0.4-3.5l-1.9,2.9
			c-1,1.6-13.4,15.4-17.1,15.4c-0.3,0-0.3-0.1-0.4-0.1c0-0.1-0.6-1.3,0.6-5.3l0.6-2l-1.8,1.1c-3.3,1.9-6.9,3-10.7,3.3
			c-1.1,0-1.4-0.3-1.5-0.3c0-0.1-0.5-1.8,8.2-8.1l2.1-1.5l-11,0.2l17.2-8l-10.3-1.6c4.3-1.8,8.8-2.9,13.4-3.3c1,0,2,0.1,3,0.5
			l0.6-1.5l-8.5-3.5c2.7-1,5.6-1.5,8.5-1.5c4.3,0,8.5,1.2,12.1,3.6l4,2.6l-2.9-3.8c-2.2-2.8-4.8-5.3-7.6-7.4
			c4.2-0.7,8.5-1.2,12.8-1.3h0.9l0.2-0.1c0.5-0.3,0.9-0.9,0.8-1.5c-0.1-1.2-1.9-2-3.6-2.8c-0.5-0.2-0.9-0.4-1.4-0.7l-0.4-0.6
			l-0.6,0.4c-3.8,2-8,3.1-12.3,3.3h-0.2c2.1-2.1,6.1-6.6,7.5-10.2l1.3-3.3l-2.6,2.3c-1.1,1-19,13.1-24.8,13.1c-0.6,0-1-0.1-1.1-0.4
			c-0.2-0.4-0.5-2,2.6-7l1.1-1.8l-2,0.6c-2.4,0.6-4.9,0.9-7.4,0.9l0,0c-4.7,0-7.7-1-7.9-1.9c0-0.2,0-2.6,12.5-7.3l2.3-0.9l-13.3-4
			l23.2-3.6l-11.6-5.9c1.8-0.2,4.3-0.3,7-0.3c6.8,0,11.7,1,14.1,3l1-1.2l-9.2-8c0.5,0,1.2,0,1.9,0c8.5-0.1,16.6,3.7,22,10.4l3.1,3.8
			l-1.6-4.6c-0.1-0.4-3.1-8.4-6.7-12.6c5.3,0.7,17.1,2.6,20.3,5.2l1.1-1.2l-6.6-7.3c4.6,0.3,16.4,1.4,23.7,6.6l2.4,1.6l-5.5-12.3
			c4.6,0.7,19.3,3.3,25.3,9.9l3.9,4.3l-8.2-16.4c5.6,2.2,21.8,8.9,26.6,15.1l4.7,6.1L134.7,19c4,0.9,15.1,4.2,19.9,15.6l1.6,4
			l-0.2-9.1l0.2,0.3c1.9,3.5,4.2,7.9,7.4,7.9h0.3c-0.8,1.4-1.2,2.6-0.9,3.3c0.1,0.3,0.4,0.6,0.7,0.7l0.5,0.2l0.4-0.3
			c4.7-3.9,15.2-8.4,19.7-10.2l-6.1,11.8l3.8-3.8c4.6-4.6,16.1-7.3,20.3-8.2l-4,8.6l2.4-1.6c5.5-3.6,14.6-5.2,18.8-5.8l-4.5,4.6
			l1.1,1.2c2.2-1.6,10.7-3.7,16.1-4.7c-1.8,2.5-3.3,5.2-4.3,8.1l-1.4,4l2.8-3.2c5.9-6.8,14.5-8.1,18.7-8.3l-6.6,5.3l1,1.3
			c3.3-2.5,11.6-3.1,16.4-3.3l-9.3,4.8l19.2,0.7L258,46.1l3.1,0.6c10.1,1.9,10.7,3.4,10.7,3.4c-0.3,0.7-4.6,1.8-9.7,1.8
			c-1,0-2,0-2.9-0.1l-2.3-0.4l1.6,1.7c2.7,2.9,2.4,3.8,2.3,3.8s-0.4,0.3-1.4,0.3c-5.4,0-19.5-6-20.9-6.7l-2.7-1.4l1.6,2.6
			c1.8,2.2,3.9,4.1,6.3,5.7h-1.2c-7.8,0-16.6-4-16.7-4l-3.3-1.5l5.7,6.8c-7.5-0.9-14.8-3.3-21.3-7.1l-2-1.3l0.8,2.3
			c1.5,4.1,3.3,6.3,5.4,6.6c-0.5,0.7-0.9,1.5-1,2.3c-1.1,0.4-2.1,1.9-3.3,4c-0.3,0.5-0.6,1-1,1.5l0.8,1.4c5-1.9,10.4-2.8,15.7-2.6
			c2.9,0,5.7,0.2,8.6,0.5l-7.6,5.7l0.9,1.4c1.9-1,7.1-1.6,14.5-1.6c2.4,0,4.6,0,6.3,0.1c-4.2,3.3-8.2,10.3-8.5,10.6l-2.4,4.1
			l3.7-3.1c5-4.3,11.4-6.6,18-6.6c2.4,0,4.8,0.3,7.2,0.8l-10.4,6l0.8,1.4c2.1-0.9,4.3-1.3,6.6-1.2c4.9,0.2,9.8,0.9,14.5,2.2
			l-12.3,3.6l22.2,7.2l-13.7,1.6l2.2,1.2c11.5,6.4,11.3,8.6,11.2,8.9c-0.1,0.2-0.9,0.9-3.6,0.9c-4-0.1-8-1-11.8-2.5l-1.9-0.9
			l0.8,1.9c2.1,4.9,1.8,6.4,1.5,6.8C269.2,114.9,269,115.1,268.5,115.1z"/>
		<path class="st6" d="M112.1,14.1c7.2,2.9,20.3,8.9,24.3,14.1l9.4,12.2l-6.7-13.9l-3-6.4c4.7,1.3,13.5,4.9,17.6,14.7l3.3,8
			l-0.2-8.6v-1.4c1.5,2.6,3.3,5,5.7,5.6c-0.5,0.9-0.7,1.9-0.5,2.9c0.2,0.6,0.6,1,1.2,1.2l0.9,0.4l0.8-0.7c3.8-3.3,11.9-6.9,17.3-9.2
			l-2.6,4.9l-5,9.6l7.6-7.7c3.9-3.9,13.4-6.6,18.3-7.6l-2.1,4.5l-2.4,5.2l4.8-3.2c4.4-2.9,11.5-4.5,16.1-5.3l-2.8,2.8l2.2,2.4
			c1.7-1.3,8.2-3,13.7-4.1c-1.3,2.1-2.3,4.3-3.2,6.6l-2.7,8l5.5-6.4c4-4.3,9.5-7.1,15.4-7.8l-4.4,3.6l2,2.6c2.1-1.6,7-2.5,12-2.9
			l-2.9,1.4l-5.7,2.9l6.4,0.2l11.5,0.4l-3,1l-6.1,2l6.3,1.2c3.2,0.5,6.3,1.3,9.4,2.5c-2.7,0.8-5.4,1.2-8.2,1.1c-0.9,0-1.9,0-2.8-0.2
			l-4.6-0.7l3.1,3.4c0.8,0.8,1.5,1.7,2,2.7h-0.5c-4.8,0-17.5-5.2-20.2-6.4l-0.1-0.2l-0.6-0.2h-0.3h-1.5l-0.3,1.2
			c-0.2,0.6,0,1.2,0.5,1.6c1.2,1.6,2.6,3,4.2,4.1c-5.2-0.5-10.2-1.8-14.9-3.9l-6.6-3l4.6,5.5l2,2.5c-6.7-1-13.1-3.3-19-6.7l-4.1-2.6
			l1.6,4.6c0.6,1.5,2,5.5,4.9,6.8c-0.2,0.4-0.4,0.9-0.5,1.3c-1.4,1.1-2.5,2.5-3.3,4.1c-0.3,0.5-0.7,1.2-0.9,1.4
			c0-0.1,0.1-0.1,0.2-0.1l1.5,2.9c4.9-1.9,10.1-2.8,15.4-2.6c2.4,0,4.6,0.1,6.4,0.3l-5.9,4.4l1.8,2.8c1.1-0.6,4.3-1.5,14.1-1.5
			c1.5,0,2.9,0,4.2,0c-2.7,2.9-5.1,6-7.1,9.5l-4.8,8.2l7.3-6.2c4.9-4.2,11.1-6.4,17.5-6.3c1.6,0,3.3,0.1,4.9,0.4l-8.4,4.8l1.6,2.9
			c2-0.8,4.1-1.2,6.2-1.1c3.8,0.1,7.6,0.6,11.3,1.5l-6.8,2l-5.1,1.5l5,1.6l16.2,5.2l-7.4,0.9l-5,0.6l4.4,2.5
			c8.8,4.9,10.5,7.3,10.8,7.9c-0.9,0.3-1.8,0.4-2.7,0.4c-3.9-0.1-7.8-0.9-11.5-2.4l-3.9-1.8l1.6,3.9c1.8,4.2,1.6,5.6,1.6,5.9h-0.1
			c-4.3,0-19.4-13.3-22-15.9l-0.1-0.3l-0.6-0.4l-0.4-0.2H244l-0.4,1c-0.2,0.4-0.2,0.9,0,1.4c1.1,3.2,2.6,6.3,4.6,9.1
			c-8.7-2.4-17.2-10.7-17.3-10.8l-5.1-5l2.4,6.7l2.1,5.8c-7.9-3.8-14.9-9.3-20.4-16.1l-3.7-4.9l0.8,6.1l1.4,11.9L189,85.7l-4-3.5
			l1.3,5.1c2.2,8.7,1,10,0.9,10c-3.2,0-12.5-10.7-16.5-15.3s-4.5-5.2-5.6-5.2h-0.2l-1.9,0.2l0.4,1.8l4.1,17.2L149,81l-5.7-4.6
			l3.2,6.6c0.6,1.2,1.1,2.5,1.4,3.8c-3-1.4-5.8-3.3-8.2-5.6c-2.5-2.1-4.8-4.3-6.9-6.7l13-14.6l1.3-1.4l-1.6-1
			c-1.1-0.7-2.1-1.3-2.8-1.6l-0.7-0.4l0.6-0.6l-0.9-1.1l-0.5-0.6h-0.8c-1,0-1.4,0.4-4.6,3.9c-2,2.1-6.9,7.4-9.1,8.8
			c0.1-0.6,0.2-1.3,0.4-1.9l0.6-2.2l-2.3,0.2c-1,0-1.9,0.6-12.3,11.5l-1.6,1.6l1.6-13.3l0.1-1.2l-1.1-0.5l-0.4-0.2h-0.4
			c-1.1,0-1.5,0.6-4.6,5c-2.3,3.3-9.1,13.3-11.5,13.8c-0.2-0.4-0.8-2,0-7.8l0.7-5.2l-3.5,3.9L78.8,84.3v-8.9v-6.1l-3.1,5.2
			c-3.7,5.8-8.6,10.7-14.3,14.5l1-4.1L64,78l-4.5,5.5c0,0.1-5.7,7-12.1,10c1.1-2.1,2-4.4,2.5-6.8l0.4-0.6l-0.5-0.9l-0.5-0.9h-1.4
			l-0.4,0.3l-0.6,0.5v0.3c-2,2.7-12.6,14.1-15.9,14.7c0-1.5,0.2-3,0.8-4.3l1.2-4.1l-3.6,2.2c-3.1,1.8-6.6,2.9-10.2,3.3h-0.5
			c0.5-0.8,2.1-2.8,7.7-6.9l4.2-3h-5.2l-4.6,0.1L32,82.3l4.9-2.3l-5.4-0.9L27,78.4c3.3-1.2,6.7-1.9,10.1-2c0.9,0,1.8,0.1,2.7,0.4
			l1.2-3l-6.4-2.6c2-0.5,4-0.8,6-0.8c4.1,0,8.1,1.1,11.6,3.4l8,5.1l-5.9-7.6c-1.8-2.3-3.9-4.5-6.1-6.4c3.5-0.6,7.1-0.9,10.7-1h1.1
			l0.4-0.3c0.8-0.4,1.3-1.3,1.2-2.2c-0.1-1.7-2.1-2.6-4-3.5l-1.1-0.5l-0.6-1L54.7,57c-3.2,1.5-6.6,2.6-10.1,3
			c2.5-2.6,4.5-5.5,6.1-8.6l0.6-0.6l-0.4-1l-0.4-1h-1.4l-0.3,0.1l-0.7,0.3L48,49.4c-2.8,2.1-18.9,12.7-24,12.7c-0.1,0-0.3,0-0.4,0
			c0-0.3,0-1.8,2.6-6.1l2.2-3.6l-4,1.1c-2.4,0.6-4.8,0.9-7.2,0.9c-4.4,0-6.6-0.8-7.1-1.3c0.2-0.4,1.8-2.5,12-6.3l4.5-1.6l-4.6-1.4
			l-7.5-2.3l17.1-2.9l5-0.8L32,35.6l-6.7-3.5c1.2,0,2.6-0.1,4-0.1c6.6,0,11.3,1,13.6,2.8l2.1-2.5l-7.7-6.6c8.2-0.1,16,3.7,21.2,10.1
			l6.2,7.7l-3.3-9.3c-1.4-3.9-3.3-7.7-5.6-11.2c7.1,1.1,15.5,2.9,17.9,4.8l2.2-2.3l-5.3-5.8c5.4,0.5,15,1.9,21.3,6.2l4.9,3.4
			L94.3,24l-3.7-8.2c5.6,0.9,18,3.6,23.4,9.5l7.9,8.6l-5.2-10.4L112.1,14.1 M108.8,11.1l6.6,13C107.8,15.9,88,13.7,88,13.7l4.9,10.9
			c-9.5-6.6-26.1-6.7-26.1-6.7l7.9,8.7c-4.3-3.6-23.3-5.7-23.3-5.7c4.3,2.5,8.4,14,8.4,14C54.5,28,46.1,24,37.3,24.2
			c-1.3,0-2.6,0.1-3.9,0.3l10.5,9.3c-3.2-2.6-9.3-3.3-14.6-3.3c-3.3,0-6.6,0.2-9.8,0.6l11.7,6L7,40.9l14.4,4.4
			c-20.3,7.6-13,10.8-4.3,10.8c2.6,0,5.2-0.3,7.6-0.9c-3.9,6.4-3.4,8.6-0.8,8.6c6.2,0,24.3-12.3,25.4-13.3l0,0l0,0l0,0
			c-1.8,4.8-8.6,11.2-8.6,11.2c0.7,0.1,1.3,0.1,2,0.1c4.4-0.2,8.7-1.3,12.7-3.3c0.4,0.7,6.5,2.3,4.3,3.8H59
			c-5.2,0.2-10.4,0.8-15.5,1.8c3.9,0.8,9.7,8.2,9.7,8.2c-3.7-2.4-8-3.6-12.5-3.6c-3.7,0-7.3,0.8-10.7,2.3l10.4,4.2
			c-1.1-0.4-2.2-0.5-3.3-0.5c-6.7,0-16.5,4.4-16.5,4.4l10.5,1.6l-18.3,8.5L25.2,89c-10.3,7.5-9.8,9.9-6.3,9.9
			c3.9-0.3,7.7-1.5,11.1-3.4c-1.4,4.7-0.9,6.6,0.6,6.6c4.3,0,17-14.5,17.8-15.8l0,0l0,0c0,0,0,0,0,0.1C47.9,90.3,44,96.6,44,96.6
			c8.5-1.5,16.9-11.8,16.9-11.8L59,92.5c7.4-4,13.7-9.8,18.2-16.9v13.1l16.5-18c-1,7.1-0.2,9.7,1.4,9.7c4.5,0,15.3-18.8,16.2-18.8
			l0,0l-2.1,18c0.9-0.6,15-15.9,16.2-16c-0.8,3.1-0.5,4.3,0.4,4.3c3.3,0,13.7-13.1,14.5-13.1l0,0c-1.5,1.6,0.5,1.8,4.2,4.2L131,74.1
			l0,0c-2.3,0,13.1,14.6,17.4,14.6c1.5,0,1.6-1.6-0.5-6.3l22.5,18l-5.3-22l0,0c1.1,0,16.4,20.5,22.1,20.5c2.2,0,2.9-3.2,0.7-12
			l22.6,19.7l-2-16.2c6.4,8,14.9,14.2,24.5,18l-3.3-9.3c0,0,11.5,11.5,22.1,11.9c0,0-5.7-7.2-6.7-11.9l0,0l0,0l0,0
			c1,1.2,17.9,16.8,23.5,16.8c2.1,0,2.6-2.2,0-8.2c3.8,1.6,7.9,2.5,12.1,2.6c5.8,0,8-2.8-7.3-11.3l14.9-1.6l-23.3-7.6l12.5-3.7
			c-5.7-1.7-11.6-2.7-17.5-3c-2.4-0.1-4.8,0.3-7,1.3l12-6.9c-3-0.9-6.1-1.4-9.3-1.4c-6.8-0.1-13.4,2.3-18.5,6.7
			c0,0,5.9-10.1,10.5-11.7c0,0-4.1-0.2-9-0.2c-5.6,0-12.3,0.3-14.9,1.7l9.2-6.9c-3.5-0.5-7.1-0.8-10.7-0.8
			c-5.5-0.2-10.9,0.7-16.1,2.7c0.8-0.5,2.9-5.4,4.4-5.4c0.2,0,0.4,0.1,0.5,0.2c-1-1.3,1-3.2,1.6-4.2c-0.3,0.1-0.7,0.2-1.1,0.2
			c-2.6,0-4.3-3.6-5.2-6.1c7.2,4.2,15.3,6.8,23.7,7.4l-4.6-5.6c0,0,8.9,4.1,17,4.1c1.2,0,2.3-0.1,3.5-0.3c0,0-6-3.7-7.9-6.7
			c0,0-0.1,0,0,0l0,0l0,0c1.4,0.7,15.7,6.8,21.3,6.8c2.7,0,3.4-1.4-0.4-5.5c1,0.1,2,0.2,3,0.2c7.8,0,19.5-3-0.9-6.9l11.8-3.9
			l-20.6-0.7l9.5-4.8h-1.1c-3.6,0-15.1,0.2-19.3,3.4l8.4-6.7h-0.8c-3.1,0-13.8,0.6-20.8,8.6c0.2-0.4,2.9-7.8,6.2-9.7
			c0,0-15.8,2.8-19.2,5.4l6.1-6.3c0,0-14,1.3-21.5,6.2l3.4-7.5c0,0-16.5,2.8-22.3,8.7l4.6-8.9c-0.5,0.2-15.8,6-21.9,11.1
			c-1.1-0.5,1.6-4.4,1.6-4.9c-0.6,0.5-1.3,0.8-2,0.8c-3.7,0-6.7-8.2-8.5-10.5l0.2,7.9c-6.1-14.6-22-16.4-22-16.4l4.6,9.2
			C131.8,19.6,109.4,11.3,108.8,11.1L108.8,11.1z M211.2,62.3c0.1,0.1,0.1,0.2,0.2,0.2C211.4,62.5,211.3,62.4,211.2,62.3z"/>
		<path class="st6" d="M202.6,50.1l-4.1,4.4l-7.4,7.9l9.4-5.4c3.2-1.8,9-2.8,16.9-2.8c1.6,0,3,0,4.1,0.1l-3.4,4l-3.7,4.4l5.4-1.8
			c3.5-1,7.2-1.5,10.9-1.4c2.7,0,5.2,0.2,7.3,0.4l-3.8,2.2l1.4,2.9c0.7-0.3,2.5-0.7,7.7-0.7c2.6,0,5.4,0.1,7.6,0.2
			c-1.9,1.7-3.6,3.7-5.1,5.8l-4.9,7.1l7.2-4.8c4.2-2.7,9-4,14-3.9c1.4,0,2.8,0.1,4.2,0.3l-5.6,2.4l1.3,3c1.4-0.5,2.9-0.7,4.4-0.6
			c3,0.1,6.1,0.4,9.1,1l-3.6,0.7l-6.6,1.3l6.3,1.9l11.9,3.5l-3.7,0.2l-6.6,0.3l5.9,2.8c3.2,1.3,6.2,3,9,5.1c-0.4,0-0.8,0-1.1,0
			c-3.6-0.1-7.2-0.8-10.5-2l-4.3-1.9l2.2,4.1c0.6,1,1.1,2.1,1.3,3.3c-4-0.3-16.9-9.7-19.7-12v-0.2l-0.5-0.3l-0.5-0.3h-1.6l-0.4,1
			c-0.2,0.5-0.1,1,0.2,1.5c0.8,2,1.9,3.8,3.3,5.4c-5.2-1.9-10.2-4.6-14.5-8l-5.6-4.5l3.1,6.6l1.5,3.1c-6.6-2.8-12.6-6.8-17.7-11.8
			l-3.7-3.9l0.9,5.4c0.1,0.8,0.2,1.5,0.4,2.2c0.5,3.5,1,6.6,3.3,8.6l-1.5,0.3l-6.4,1.3l6.3,1.9l5.3,1.6l-6.1,0.3l5.9,2.8
			c1.6,0.7,3.2,1.6,4.8,2.5c-2.1-0.1-4.2-0.6-6.2-1.3l-4.3-1.9l2.2,4.1c0.2,0.4,0.4,0.9,0.6,1.3c-3.1-1-10.3-6.2-12.2-7.8v-0.2
			l-0.5-0.3l-0.4-0.3H210l-0.4,1c-0.2,0.5-0.1,1,0.1,1.4c0.3,0.8,0.8,1.6,1.3,2.4c-2.9-1.2-5.7-2.9-8.2-4.8l-5.7-4.5l3.1,6.6
			l0.4,0.9c-4-1.9-7.6-4.4-10.8-7.5l-3.9-4.1l1.1,5.6l0.8,3.9l-10.8-7.7l-4.2-3.1l1.6,4.9c0.4,1.1,0.7,2.3,0.8,3.5
			c-1.5-0.5-4.8-3.1-9.8-7.8c-2.5-2.3-2.7-2.6-3.6-2.6h-0.7l-0.5,0.5l-0.7,0.7l0.3,1l2.2,6.4l-10-6.8l-7-4.7l4.5,6.6
			c-1.9-1-3.7-2.2-5.4-3.6c-0.6-0.5-1.4-0.8-2.2-0.8c-0.9,0-1.8,0.4-2.5,1.1c-4,3.7-8.6,6.7-13.6,9l0.3-0.9l1.5-4.6l-4,2.7
			l-12.7,8.7l1.9-5.9l1.4-4.2l-3.8,2.3c-1,0.6-4,2.4-5.4,2.4h-0.1l-0.7-0.1l-0.6,0.4l-2.6,2c-2.1,1.8-4.4,3.4-6.9,4.6
			c0-1.8,0.4-3.6,1-5.3l1.3-4.5L93.1,89l-7,5.1l0.1-0.6L83,96l-5.8,4.3l1.4-7.2l1.1-5.6l-3.9,4.2c-4.8,4.8-10.4,8.6-16.6,11.3
			l1.3-2.9l3.1-6.6l-5.6,4.6c-4.1,3.2-8.6,5.8-13.5,7.6c0.5-0.7,1-1.4,1.5-2.1l2-3.1l-3.7,0.6h-0.2l-1-1c-3,2.6-13.3,9.8-16.8,10.3
			c0.2-0.8,0.5-1.6,0.9-2.3l1.3-2.5l-2.5,0.1l0.4-0.9l-3.1,0.8c-2.9,0.8-5.8,1.4-8.8,1.6c1.2-1.1,2.5-2,3.8-2.9l5.5-3.6l-6.6,0.6
			l-2.1,0.2c-1.2,0.1-2.4,0.3-3.4,0.3l0.8-0.7l2.5-1.9l1.1-0.8c1.8-1.4,3.8-2.4,6-3.1l9.4-2.7l-9.7-0.6l-5.5-0.3l14.6-4.4l6.2-1.9
			l-6.3-1.3l-5.2-1.1c3.7-0.8,7.4-1.3,11.2-1.4c1.7-0.1,3.4,0.2,5.1,0.7l1.3-3L36,76.4c1.8-0.3,3.5-0.4,5.3-0.4
			c5.7-0.1,11.2,1.5,15.9,4.6l7.2,4.9l-4.9-7.2c-1.8-2.6-3.8-4.9-6.1-7c2.5-0.1,5.7-0.3,8.6-0.3c6.2,0,8.4,0.5,9.1,0.9l1.5-2.9
			l-4.9-2.9c2.3-0.2,5.3-0.4,8.5-0.4c4.3-0.1,8.5,0.4,12.6,1.6l5.4,1.9l-3.7-4.4l-4.1-5c1.3,0,2.9-0.1,4.6-0.1
			c8.9,0,15.8,1.2,19.5,3.3l9.4,5.6l-7.3-8.1l-5-5.6c6.6,0.9,18.6,2.8,24.2,5.8c0.3,0.1,0.6,0.2,0.9,0.2c1.1,0,1.9-0.9,1.9-1.9
			c0-0.4-0.2-0.9-0.5-1.2l-2.1-2.4c4.9,0.2,13.8,1.5,18.9,8.1l4.2,5.4l-1.3-6.7l-0.2-1.1l0,0l1.1,1l1.1-1l6.1-5.5v0.4l-1.3,6.6
			l4.2-5.2c4.3-5.5,11.9-6.7,16.2-6.9l-2.5,2.9l-9.3,10.4l11.5-7.9C184.3,52.9,195.5,51,202.6,50.1 M206.9,47.9c0,0-21.2,2-27.3,6.3
			l4.9-5.6c0,0-0.8,0-2,0c-4.2,0-13.8,0.8-19.2,7.5l1-5.2l-9.7,8.8l-3.7-3.4l1.1,6c-6.1-7.9-17.1-8.7-21.7-8.7c-1.3,0-2,0-2,0
			l4.5,5.1c0.1,0.1,0.1,0.3-0.1,0.4c0,0-0.1,0-0.1,0.1h-0.1c-8.2-4.3-29.1-6.6-29.1-6.6l8,8.8c-4.9-2.9-13.8-3.5-20.3-3.5
			c-4.5,0-7.9,0.3-7.9,0.3l6.2,7.5c-4.3-1.3-8.7-1.8-13.1-1.7c-4.5,0-8.9,0.4-13.4,1l8.9,5.3c-3.2-0.8-6.5-1.2-9.8-1
			c-6.7,0-13.9,0.6-13.9,0.6c4.6,1.2,10.1,9.2,10.1,9.2c-5-3.3-10.9-5-16.9-4.9c-3.6,0-7.1,0.5-10.5,1.5L42.4,81
			c-1.8-0.6-3.8-0.9-5.7-0.9c-6.3,0.3-12.6,1.4-18.7,3.1l12.3,2.6L6.9,92.9l14.7,0.9c-5.4,1.5-7.5,5-11.8,6.1l1.6,0.1
			c-3.6,2.9-2.6,3.6-0.3,3.6c1.8,0,4.3-0.4,6.2-0.6c-6.9,4.6-6.3,5.9-3.3,5.9c3.2-0.2,6.4-0.8,9.5-1.6c-0.1,0.3,0.1,0.4,0.5,0.4
			s1.2-0.2,1.6-0.2c-1.8,3.4-1.4,4.7,0.1,4.7c4,0,15.8-8.6,18.3-10.7c-0.8,1-1.4,1.6-1.4,1.6c0.6,0,1.2-0.1,1.9-0.2
			c-1.4,2-2.9,3.8-4.5,5.6c8.8-0.7,18.9-8.9,18.9-8.9l-3,6.6c7.9-2.7,15.1-7.2,21-13.1l-2.1,11.3l9.2-6.7L83.8,98l10.3-7.6
			c-1.6,5.5-1.2,7.4,0.3,7.4c2,0,6.3-3.6,10.9-7h0.4c2.2-0.4,4.4-1.3,6.2-2.7l-3.4,10.5l16.7-11.5l-1.4,4.2
			c6.4-2.4,12.3-6,17.3-10.6c0.3-0.4,0.8-0.6,1.3-0.6c0.4,0,0.8,0.2,1.1,0.4c2.3,2,6.8,4.8,8.5,4.8c0.9,0,1-0.8-0.5-3l14.1,9.4
			L162.1,81l0,0c0.6,0,10.4,10.4,13.8,10.4c1.3,0,1.6-1.5,0.2-5.7l14.2,10.2l-1.6-8c4.3,4.2,9.6,7.4,15.3,9.4l-2.2-4.6
			c0,0,7.3,5.9,13.7,6.4c-1.8-1.7-3.2-3.8-4.4-6l0,0l0,0l0,0c0.9,0.8,11.3,8.7,14.5,8.7c1.2,0,1.5-1.1-0.1-3.9
			c2.4,0.9,5,1.4,7.6,1.5c3.3,0,4.3-1.4-4.9-5.7l9-0.5L223,88.8l7.5-1.5c-7.4-0.3-7.1-4.5-8.3-11.5c6.3,6.2,13.9,10.9,22.3,13.7
			l-3.3-6.8c0,0,10.7,8.6,20,9.3c0,0-5.2-5.3-6.4-8.8c0,0-0.1-0.1,0-0.1l0,0l0,0c1.2,1.1,16.5,12.7,21.3,12.7c1.8,0,2.1-1.6-0.1-5.7
			c3.6,1.3,7.4,2.1,11.2,2.2c4.8,0,6.2-2-7.2-8.2l13.2-0.7l-21-6.2l11-2.2c-5.5-1.6-11.1-2.5-16.8-2.8c-1.7-0.1-3.3,0.2-4.9,0.7
			l10.4-4.5c-3.1-0.9-6.4-1.4-9.6-1.3c-5.3-0.1-10.5,1.3-14.9,4.2c0,0,4.9-7,8.9-8c0,0-6.7-0.6-12.8-0.6c-2.8-0.1-5.6,0.1-8.4,0.8
			l7.9-4.6c-4.1-0.6-8.2-0.9-12.3-1c-3.9-0.1-7.7,0.4-11.5,1.5l5.5-6.6c0,0-3.3-0.3-7.5-0.3c-5.7,0-13.4,0.5-17.7,3L206.9,47.9
			L206.9,47.9z"/>
		<path class="st7" d="M25.9,111.3c-0.2,0-0.4,0-0.4-0.1c0-0.1-0.4-0.7,1-3.4l0.6-1.3h-1.4c-0.2,0-0.5,0-0.7,0.1h-0.3l0.3-0.7
			l-1.6,0.4c-3,0.9-6.2,1.4-9.3,1.6c-1.1,0-1.4-0.2-1.4-0.2l0,0c0.1,0,0.4-1,5.1-4.2l2.7-1.8l-3.3,0.3c-0.6,0-1.3,0.1-2,0.2
			c-1.3,0.2-2.7,0.3-4.1,0.4c-0.4,0-0.8,0-1.2-0.1c0.5-0.8,1.2-1.5,2-2l1.6-1.3h-0.2c0.8-0.4,1.5-1,2.2-1.5c1.9-1.5,4-2.6,6.2-3.3
			l4.7-1.3l-15-0.9l22.1-6.6l-12-2.5c4.9-1.3,10-2,15.1-2.2c1.8-0.1,3.7,0.2,5.4,0.8l0.7-1.5L33.3,76c2.7-0.6,5.4-0.9,8.1-0.9
			c5.8-0.1,11.5,1.5,16.4,4.8l3.6,2.5l-2.5-3.6c-2.1-3.1-4.7-5.9-7.7-8.2c2.7-0.2,6.9-0.4,10.9-0.4c6,0,8.5,0.5,9.5,0.9l0.7-1.5
			l-6.9-4.1c3.6-0.5,7.3-0.7,11-0.7c4.4-0.1,8.7,0.4,12.9,1.6l2.7,0.9l-7-8.5c1.4-0.1,3.6-0.2,6.2-0.2c6.4,0,15.1,0.6,19.9,3.4
			l4.7,2.8l-10.2-11.2c5.5,0.7,20.2,2.8,26.7,6.1l0.2,0.1h0.3c0.4,0,0.8-0.3,1-0.6c0.2-0.4,0.1-0.8-0.2-1.2l-3.3-3.8h0.3
			c4.4,0,15.1,0.8,21,8.4l2.1,2.7l-1.3-6.9l2.4,2.2l8.4-7.6l-1.2,6.1l2-2.4c5.2-6.6,14.7-7.2,18.5-7.2h0.2l-8.4,9.4l5.7-4
			c4.7-3.3,19.2-5.3,24.7-5.9l-9.3,10l4.7-2.7c4.2-2.4,11.7-2.9,17.3-2.9c2.4,0,4.5,0.1,5.8,0.2l-6.3,7.5l2.7-0.9
			c3.6-1,7.4-1.5,11.2-1.4c3.3,0,6.6,0.2,9.8,0.6l-5.9,3.4l0.7,1.5c2.6-0.7,5.3-1,8.1-0.8c3.5,0,7.3,0.2,9.8,0.4
			c-2.5,2-4.7,4.3-6.6,7l-2.5,3.6l3.6-2.4c4.3-2.8,9.3-4.2,14.5-4c2.4,0,4.7,0.2,7.1,0.7l-8.2,3.5l0.6,1.5c1.5-0.5,3.1-0.7,4.7-0.7
			c4.4,0.2,8.8,0.8,13.1,1.9l-10.7,2.1l19.7,5.8l-11.7,0.6l2.9,1.4c9.7,4.5,10.1,6.1,10.1,6.3l0,0c-0.8,0.3-1.7,0.5-2.6,0.4
			c-3.7-0.1-7.4-0.8-10.9-2.1l-2.1-0.9l1.1,2.1c1.8,3.4,1.5,4.3,1.4,4.4s-0.4,0.2-0.5,0.2c-4.2,0-18.9-10.8-20.7-12.5l-2.2-2
			l0.9,2.9c1.2,2.7,2.9,5.2,4.9,7.4c-8.4-1.6-17.3-8.7-17.3-8.8L239,80l4,8.3c-7.5-2.9-14.4-7.3-20.1-12.9l-1.9-2l0.5,2.7
			c0.1,0.8,0.2,1.5,0.3,2.2c0.7,4.3,1.2,7.6,4.6,9.1l-6.7,1.4l13,3.8l-7.5,0.4l3,1.4c5,2.3,6.3,3.5,6.7,3.9
			c-0.5,0.1-0.9,0.2-1.4,0.1c-2.5-0.1-5-0.5-7.3-1.4l-2.2-1l1.1,2.1c1,1.9,1,2.6,1,2.7h-0.2c-2.8,0-12.7-7.3-14-8.5l-2.3-2l0.9,2.9
			c0.7,1.7,1.7,3.2,2.9,4.6c-4-1.3-7.7-3.2-11-5.8l-2.8-2.3l2.9,6.1c-4.9-1.9-9.3-4.8-13.1-8.5l-1.9-2.1l1.7,8.7l-14.5-10.5l0.8,2.4
			c1.2,3.6,0.9,4.5,0.8,4.6c-0.1,0.1,0,0-0.2,0c-2.1,0-8-5.5-10.8-8.1c-2.3-2.1-2.5-2.3-3-2.3h-0.3l-0.6,0.6l3.1,9.1l-15.6-10.4
			l2.4,3.6c0.4,0.5,0.7,1.1,0.9,1.6c-2.9-1-5.5-2.6-7.8-4.6c-1.1-0.9-2.6-0.8-3.6,0.2c-4.6,4.1-9.8,7.4-15.4,9.8l1.6-4.9l-16.7,11.4
			l3.3-10.3l-1.9,1.1c-1.7,1.2-3.7,2.1-5.8,2.6h-0.3H105l-0.3,0.2l-2.6,2C99,94.5,95.7,97,94.4,97c-0.2,0-0.2,0-0.3-0.1
			c-0.2-0.3-0.6-1.5,0.8-6.3l0.7-2.3L85,96l0.1-0.6l-9.2,6.7l2.3-12l-1.9,2.1c-5.4,5.4-11.8,9.5-18.8,12.3l3.8-8l-2.8,2.3
			c-0.1,0-8.3,6.8-16.2,8.4c1.1-1.3,2.1-2.6,3.1-4l1-1.6l-1.5,0.2l-1.1-1.1C40.5,103.4,29.3,111.3,25.9,111.3z"/>
		<g>
			<path class="st8" d="M259.5,279.1c0,0,35.3,18.9,62.7-12.1C322.2,267,272.3,271.9,259.5,279.1z"/>
			<path class="st8" d="M298.7,276.6c0,0-14.5,6.6-39.2,2.5C259.5,279.1,288.6,279.8,298.7,276.6z"/>
			<path class="st8" d="M254.9,273.3c0,0,4-30.2-25.4-41.4C229.5,231.9,246.4,266.1,254.9,273.3z"/>
			<path class="st8" d="M242.6,246c0,0,8.6,8.5,12.3,27.2C254.9,273.3,247.6,252.4,242.6,246z"/>
			<path class="st8" d="M267.3,259.8c0,0-1.5-30.4-32.4-36.1C234.9,223.7,257.6,254.3,267.3,259.8z"/>
			<path class="st8" d="M250.4,235.3c0,0,10,6.9,17,24.6C267.3,259.8,256.4,240.6,250.4,235.3z"/>
			<path class="st8" d="M282.3,247.2c0,0-1.5-30.4-32.4-36.1C249.9,211,272.6,241.6,282.3,247.2z"/>
			<path class="st8" d="M265.3,222.6c0,0,10,6.9,17,24.6C282.3,247.2,271.4,227.9,265.3,222.6z"/>
			<path class="st8" d="M287.8,224.5c0,0-6.4-29.8-37.8-30.4C250,194,277.3,220.6,287.8,224.5z"/>
			<path class="st8" d="M267.1,203c0,0,11,5.2,20.7,21.5C287.8,224.5,273.9,207.3,267.1,203z"/>
			<path class="st8" d="M289.2,202.4c0,0-10.2-22.5-35.2-17.7C254,184.7,280.2,201.1,289.2,202.4z"/>
			<path class="st8" d="M269.1,188.9c0,0,9.6,2.2,20.1,13.5C289.2,202.4,275.3,191.1,269.1,188.9z"/>
			<path class="st8" d="M284.4,181.6c0,0-13.4-20.7-37.5-12.2C246.9,169.4,275.3,181.7,284.4,181.6z"/>
			<path class="st8" d="M262.4,171.2c0,0,9.8,0.8,21.9,10.4C284.4,181.6,268.9,172.5,262.4,171.2z"/>
			<path class="st8" d="M276.3,162.6c0,0-15.8-19-38.7-7.7C237.7,154.9,267.3,163.7,276.3,162.6z"/>
			<path class="st8" d="M253.3,154.9c0,0,9.8-0.4,23,7.7C276.3,162.6,259.9,155.4,253.3,154.9z"/>
			<path class="st8" d="M263.2,146.7c0,0-17.3-17.6-39.2-4.4C224.1,142.3,254.3,148.6,263.2,146.7z"/>
			<path class="st8" d="M239.7,141c0,0,9.8-1.3,23.6,5.7C263.2,146.7,246.2,141,239.7,141z"/>
			<path class="st8" d="M272.9,265c0,0,0.8,0.2,2.2,0.3c8.3,1,37.9,2.3,53.5-25.2C328.6,240.1,283,252.1,272.9,265z"/>
			<path class="st8" d="M304.1,254.7c0,0-20.1,9.7-31.2,10.3C272.9,265,300.4,256.1,304.1,254.7z"/>
			<path class="st8" d="M284.1,243.1c0,0,0.7,0,1.9-0.2c7.1-1.1,31.9-6.6,38.5-33C324.5,209.9,289.6,230.2,284.1,243.1z"/>
			<path class="st8" d="M307.6,227.5c0,0-14.4,12.6-23.4,15.5C284.1,243.1,304.9,229.5,307.6,227.5z"/>
			<path class="st8" d="M288.4,224.3c0,0,0.7-0.2,1.8-0.7c6.7-2.7,29.4-13.9,29.7-41C320,182.6,290.7,210.5,288.4,224.3z"/>
			<path class="st8" d="M307.6,203.7c0,0-11.1,15.6-19.2,20.6C288.4,224.3,305.5,206.3,307.6,203.7z"/>
			<path class="st8" d="M289.5,202c0,0,0.5-0.3,1.4-1c5.1-3.7,22-18,16.6-40.6C307.5,160.5,288.6,190,289.5,202z"/>
			<path class="st8" d="M301.4,180.7c0,0-6.1,15.4-11.9,21.3C289.5,202,300.2,183.3,301.4,180.7z"/>
			<path class="st8" d="M286.5,181.5c0,0,0.4-0.4,1.1-1.2c3.9-4.4,16.7-20.8,7.3-40.5C294.9,139.8,283.3,170.7,286.5,181.5z"/>
			<path class="st8" d="M293.4,159.6c0,0-2.6,15.3-6.8,21.9C286.5,181.5,292.7,162.3,293.4,159.6z"/>
			<path class="st8" d="M276.4,161.2c0,0,0.3-0.4,0.7-1.3c2.5-4.7,10.3-22-2.2-37.4C274.9,122.6,271.2,152.3,276.4,161.2z"/>
			<path class="st8" d="M277.7,140.4c0,0,1,14.1-1.3,20.8C276.4,161.2,277.7,142.9,277.7,140.4z"/>
			<path class="st8" d="M265,146.5c0,0,0.2-0.4,0.3-1.2c1.1-4.6,3.6-21.1-10.9-31.5C254.4,113.8,258.4,140.1,265,146.5z"/>
			<path class="st8" d="M261.1,128.4c0,0,4.3,11.9,3.9,18.1C265,146.5,261.7,130.5,261.1,128.4z"/>
			<path class="st9" d="M247.1,278.8c0.8-0.3,1.6-0.6,2.4-1s1.6-0.8,2.4-1.2c1.6-0.8,3.1-1.7,4.6-2.7c3-2,5.8-4.2,8.5-6.6
				c5.3-4.9,9.7-10.7,13.1-17c1.7-3.2,3.2-6.5,4.5-9.8c1.3-3.4,2.3-6.9,3.1-10.4c1.6-7.1,2.5-14.3,2.7-21.6l0-1.4l0-1.4
				c0-0.9,0-1.8-0.1-2.7l-0.1-2.7c0-0.9-0.2-1.8-0.2-2.7c-0.4-3.6-1-7.2-1.9-10.7c-1.7-7-4.5-13.8-8.1-20.1
				c-3.7-6.3-8-12.2-12.8-17.7c-4.8-5.5-9.9-10.8-15-16c-0.2-0.2-0.2-0.6,0-0.9c0.2-0.2,0.6-0.2,0.9,0c5.2,5.2,10.4,10.4,15.2,15.9
				c4.9,5.5,9.3,11.5,13.1,17.8c3.7,6.4,6.6,13.3,8.4,20.5c0.9,3.6,1.5,7.2,1.9,10.9c0.1,0.9,0.2,1.8,0.3,2.8l0.2,2.8
				c0,0.9,0.1,1.9,0.1,2.8l0,1.4l0,1.4c-0.1,7.4-1,14.8-2.5,22c-0.8,3.6-1.8,7.2-3.1,10.7c-1.3,3.5-2.8,6.9-4.5,10.2
				c-3.5,6.6-8.1,12.6-13.5,17.7c-2.7,2.6-5.6,4.9-8.8,7c-1.6,1-3.2,2-4.8,2.9c-0.8,0.4-1.7,0.9-2.5,1.3s-1.7,0.8-2.7,1.1
				c-0.7,0.3-1.5-0.1-1.8-0.8C246,279.9,246.4,279.1,247.1,278.8L247.1,278.8L247.1,278.8z"/>
			<path class="st8" d="M251.3,133.6c0,0-21.1-2.2-22.8-13.6C228.6,119.9,260.6,113.9,251.3,133.6z"/>
			<path class="st8" d="M250.4,131.8c0,0-5.7-8.8-12.7-9.6C237.7,122.2,252.3,122.4,250.4,131.8z"/>
		</g>
		<rect x="218.8" y="116" class="st10" width="33.2" height="65.6"/>
		<line class="st0" x1="252" y1="113.8" x2="252" y2="187"/>
	</g>
</g>
</svg>
