<svg xmlns="http://www.w3.org/2000/svg" viewBox="0 0 335.48 293.27"><defs><style>.cls-1{fill:none;}.cls-1,.cls-2{stroke:#000;}.cls-1,.cls-2,.cls-5,.cls-6{stroke-miterlimit:10;}.cls-2,.cls-5{fill:#fff;}.cls-3,.cls-6{fill:#ffca00;}.cls-4{fill:#231f20;}.cls-5,.cls-6{stroke:#231f20;}</style></defs><g id="Layer_2" data-name="Layer 2"><g id="Layer_1-2" data-name="Layer 1"><line class="cls-1" x1="36.95" y1="269.69" x2="136.64" y2="269.69"/><line class="cls-1" x1="36.95" y1="262.54" x2="136.64" y2="262.54"/><path class="cls-2" d="M133,273.56c0-23.8-11.64-46-8.92-56.17-39.17-19.48-35.79-66.51-35.79-66.51h61.35V273.56Z"/><path class="cls-2" d="M43.57,273.56c0-23.8,11.65-46,8.93-56.17,39.17-19.48,35.78-66.51,35.78-66.51H26.94V273.56Z"/><path class="cls-3" d="M159.69,173.65c-3.09,0-13.32-9.31-14-10.08L144.41,162l.45,2c.49,2.2,2.44,5.1,3.5,6.56-5.85-1-12-6.95-12-7L134.76,162l2.39,6.72a36.25,36.25,0,0,1-13.69-10.42l-1.12-1.5,1.27,10.44-14-12.2.4,1.56c1.2,4.69.84,6.08.51,6.5a.5.5,0,0,1-.43.2c-2.16,0-7.56-6.2-10.46-9.54-2.37-2.72-2.63-3-3-3l-.57.06.08.55,2.83,12L84.64,151.83l1,2c1.2,2.48.94,3,.91,3.07s-.11,0-.15,0c-2,0-9.22-6.48-10.19-8.14l8.58-9.62-.48-.32c-.66-.44-1.23-.76-1.69-1a5.27,5.27,0,0,1-.93-.59s.06-.08.16-.19l.3-.32-.42-.52h-.26c-.35,0-.56.19-2.45,2.24-1.72,1.87-5.32,5.77-6.4,5.77h0s-.22-.33.23-2l.18-.68-.7.05c-.49,0-1.54,1-7.18,6.86l-2,2.05,1.19-10-.43-.2h-.13c-.4,0-.56.19-2.39,2.85-1.92,2.81-5.92,8.64-7.53,8.64a.3.3,0,0,1-.24-.12c-.28-.31-.66-1.41-.15-5.21l.22-1.58L43.4,156.15l0-8.57-.94,1.6a30,30,0,0,1-9.94,9.62L33.91,153l-1.37,1.69c0,.06-4.32,5.28-8.87,6.75a17,17,0,0,0,2.1-5.4l.23-2.11-1.14,1.78c-.63,1-8.18,9.39-10.42,9.39-.16,0-.2-.05-.23-.09s-.37-.77.36-3.22l.37-1.25-1.11.68a15.8,15.8,0,0,1-6.51,2c-.68,0-.88-.16-.89-.21s-.28-1.07,5-4.94l1.28-.93L6,157.29l10.51-4.88-6.28-1a26.45,26.45,0,0,1,8.2-2,5.29,5.29,0,0,1,1.83.28l.36-.94-5.2-2.11a16,16,0,0,1,5.19-.9A13.36,13.36,0,0,1,28,147.93l2.44,1.56-1.77-2.29A22.84,22.84,0,0,0,24,142.69a55.83,55.83,0,0,1,7.82-.81h.55l.13-.09a1,1,0,0,0,.51-.9c-.07-.76-1.14-1.25-2.19-1.73a5.59,5.59,0,0,1-.83-.42l-.23-.38-.36.24a18.3,18.3,0,0,1-7.52,2h-.1c1.28-1.31,3.73-4,4.58-6.23l.77-2-1.57,1.43c-.67.61-11.58,8-15.16,8q-.56,0-.69-.24c-.15-.27-.29-1.21,1.6-4.25l.67-1.09-1.23.34a18,18,0,0,1-4.54.54h0c-2.89,0-4.73-.6-4.83-1.19,0-.15,0-1.59,7.65-4.45l1.38-.52L2.3,128.5l14.17-2.18-7.06-3.63c1.09-.1,2.62-.2,4.26-.2,4.15,0,7.13.64,8.62,1.84l.64-.76-5.64-4.89c.33,0,.74,0,1.19,0A16.94,16.94,0,0,1,31.9,125l1.88,2.34-1-2.82c-.09-.25-1.87-5.15-4.07-7.68,3.24.45,10.44,1.61,12.37,3.2l.69-.72-4-4.46c2.81.16,10,.88,14.45,4l1.49,1-3.37-7.51c2.83.41,11.76,2,15.47,6.07l2.41,2.64-5-10c3.43,1.34,13.33,5.43,16.26,9.23l2.88,3.73L78,115c2.46.53,9.2,2.57,12.12,9.5l1,2.43L91,121.35l.1.19c1.15,2.15,2.58,4.83,4.51,4.83h.16c-.47.88-.74,1.56-.57,2a.72.72,0,0,0,.42.45l.28.12.23-.2c2.87-2.41,9.27-5.12,12-6.21l-3.73,7.18,2.32-2.35c2.78-2.81,9.84-4.46,12.4-5l-2.42,5.26,1.46-1c3.34-2.2,8.9-3.19,11.49-3.55l-2.75,2.8.67.75c1.35-1,6.54-2.24,9.8-2.88a19.11,19.11,0,0,0-2.62,4.93l-.83,2.43,1.68-1.94c3.58-4.13,8.87-4.94,11.39-5.08l-4,3.21.61.79c2-1.52,7.11-1.88,10-2L147.92,129l11.73.4-6.38,2.09,1.91.36c6.18,1.17,6.53,2.06,6.54,2.09-.19.42-2.82,1.12-5.92,1.12A12.83,12.83,0,0,1,154,135l-1.4-.22,1,1.05c1.63,1.79,1.44,2.29,1.43,2.31s-.25.21-.85.21c-3.29,0-11.91-3.65-12.78-4.1l-1.65-.86,1,1.57a15.08,15.08,0,0,0,3.83,3.45l-.71,0c-4.75,0-10.11-2.44-10.17-2.46l-2-.92,3.45,4.16a33.26,33.26,0,0,1-13-4.33l-1.25-.8.51,1.39c.92,2.5,2,3.83,3.27,4a3,3,0,0,0-.6,1.42c-.68.25-1.29,1.18-2,2.42a7.38,7.38,0,0,1-.6.92l.49.86a24,24,0,0,1,9.61-1.61,48,48,0,0,1,5.23.3l-4.63,3.46.53.84c1.19-.64,4.32-1,8.84-1,1.47,0,2.83,0,3.83.07-2.55,2-5,6.27-5.18,6.48l-1.47,2.52,2.23-1.89a16.55,16.55,0,0,1,11-4,19.18,19.18,0,0,1,4.37.51L150,154.41l.48.88a8.85,8.85,0,0,1,4-.74,38.61,38.61,0,0,1,8.85,1.34l-7.51,2.21,13.58,4.42-8.34.95,1.35.76c7,3.93,6.89,5.28,6.85,5.43s-.57.55-2.17.55a19.77,19.77,0,0,1-7.18-1.54l-1.18-.54.51,1.19c1.29,3,1.07,3.92.91,4.16C160.11,173.53,160,173.65,159.69,173.65Z"/><path class="cls-4" d="M64.2,112c4.39,1.78,12.41,5.45,14.85,8.61l5.75,7.45-4.06-8.5-1.86-3.88c2.87.79,8.26,3,10.76,9l2,4.87-.13-5.28,0-.85c.92,1.58,2,3.07,3.45,3.41a2.41,2.41,0,0,0-.28,1.77,1.23,1.23,0,0,0,.71.75l.56.24.46-.4c2.32-2,7.24-4.22,10.57-5.61l-1.58,3-3.05,5.87,4.65-4.71c2.39-2.41,8.16-4,11.17-4.64l-1.27,2.76-1.47,3.19,2.93-1.94c2.71-1.79,7-2.77,9.8-3.25l-1.69,1.73,1.32,1.49c1.05-.81,5-1.81,8.35-2.53a21.89,21.89,0,0,0-1.94,4l-1.67,4.87,3.37-3.89a15.16,15.16,0,0,1,9.39-4.75L142.63,127l1.23,1.58c1.3-1,4.25-1.52,7.34-1.75l-1.75.88-3.51,1.76,3.92.14,7,.23-1.86.61-3.7,1.21,3.82.73a24.62,24.62,0,0,1,5.71,1.53,16.88,16.88,0,0,1-5,.68,10.29,10.29,0,0,1-1.7-.11l-2.81-.43,1.92,2.1a7.51,7.51,0,0,1,1.24,1.66l-.29,0c-2.95,0-10.7-3.19-12.32-3.93l-.06-.1-.36-.12-.18,0h-.94l-.19.76a1,1,0,0,0,.3,1,12.41,12.41,0,0,0,2.59,2.51,29.57,29.57,0,0,1-9.12-2.39l-4-1.83,2.8,3.38,1.24,1.5a33,33,0,0,1-11.58-4.1l-2.5-1.59,1,2.78c.34.91,1.24,3.36,3,4.15a3.21,3.21,0,0,0-.3.8,7,7,0,0,0-2,2.49c-.18.31-.43.72-.52.83a.28.28,0,0,1,.11-.09l.94,1.76a23.79,23.79,0,0,1,9.4-1.57c1.47,0,2.83.08,3.9.17l-3.6,2.69,1.07,1.68c.65-.35,2.62-.93,8.6-.93.91,0,1.79,0,2.56,0a31.29,31.29,0,0,0-4.34,5.77l-2.94,5,4.45-3.78a16.1,16.1,0,0,1,10.67-3.85,20.35,20.35,0,0,1,3,.24l-5.1,2.93,1,1.75a8.46,8.46,0,0,1,3.8-.68,33.63,33.63,0,0,1,6.91.89l-4.16,1.23-3.1.91,3.07,1,9.86,3.2-4.52.52-3.08.35,2.7,1.51c5.4,3,6.39,4.44,6.57,4.82a4.1,4.1,0,0,1-1.64.23,19.29,19.29,0,0,1-7-1.49l-2.36-1.08,1,2.38c1.1,2.58,1,3.43,1,3.63h-.06c-2.64,0-11.87-8.13-13.42-9.73l-.05-.2-.37-.23-.26-.14h-.91l-.27.58a1,1,0,0,0,0,.83,20,20,0,0,0,2.81,5.54c-5.29-1.47-10.49-6.55-10.55-6.61l-3.11-3.06,1.46,4.11,1.28,3.57a36,36,0,0,1-12.44-9.8l-2.25-3,.46,3.71L123,166l-11.81-10.29-2.42-2.11.79,3.11c1.36,5.32.61,6.08.57,6.08-1.93,0-7.64-6.56-10.08-9.36s-2.76-3.15-3.4-3.15h-.1l-1.15.11.27,1.12,2.5,10.53-11.44-9.22-3.46-2.79,1.93,4a9.62,9.62,0,0,1,.87,2.31,18.68,18.68,0,0,1-5-3.42,34.65,34.65,0,0,1-4.19-4.12l7.93-8.89.77-.86-1-.64c-.68-.45-1.26-.77-1.73-1l-.42-.24.37-.39-.54-.68-.32-.38h-.48c-.6,0-.86.27-2.81,2.4-1.21,1.31-4.19,4.54-5.57,5.4a8.54,8.54,0,0,1,.24-1.16l.37-1.36-1.41.1c-.63,0-1.13.38-7.5,7l-1,1,1-8.13.09-.72-.66-.3-.22-.1h-.22c-.69,0-.93.35-2.8,3.07-1.39,2-5.57,8.12-7,8.41-.12-.25-.46-1.25,0-4.75l.43-3.17-2.16,2.36-8.32,9.09,0-5.41v-3.7l-1.88,3.19a29.83,29.83,0,0,1-8.76,8.83l.59-2.52,1-4.23-2.73,3.37c0,.05-3.49,4.27-7.41,6.11a15.48,15.48,0,0,0,1.5-4.15l.22-.35-.28-.52-.29-.53H25l-.25.17-.39.31,0,.19c-1.23,1.63-7.68,8.6-9.72,9a7.12,7.12,0,0,1,.46-2.65l.74-2.49-2.22,1.35a15.11,15.11,0,0,1-6.25,2l-.28,0c.29-.5,1.29-1.73,4.73-4.23l2.55-1.86-3.16,0-2.79.05,6.88-3.19,3-1.39L15,151.66l-2.72-.42A21.5,21.5,0,0,1,18.45,150a5.12,5.12,0,0,1,1.66.24l.72-1.86-3.89-1.58a15.42,15.42,0,0,1,3.69-.47,12.86,12.86,0,0,1,7.07,2.06l4.88,3.12L29,146.89a25.93,25.93,0,0,0-3.75-3.9,49.39,49.39,0,0,1,6.53-.61h.7l.27-.18a1.42,1.42,0,0,0,.72-1.35c-.08-1.06-1.3-1.61-2.47-2.14l-.65-.31-.38-.63-.81.38A20,20,0,0,1,23,140a21.45,21.45,0,0,0,3.75-5.28l.37-.34-.25-.64-.25-.64h-.88l-.16.06-.45.19-.06.18c-1.68,1.3-11.53,7.75-14.66,7.75a1.18,1.18,0,0,1-.26,0c0-.2,0-1.11,1.59-3.71l1.35-2.17-2.46.68a17.5,17.5,0,0,1-4.41.52c-2.69,0-4-.5-4.32-.78C2,135.57,3,134.27,9.2,132l2.77-1-2.83-.86-4.6-1.4L15,127l3.05-.46-2.75-1.41-4.1-2.11c.75,0,1.59-.07,2.45-.07,4,0,6.91.6,8.31,1.73l1.28-1.53-4.68-4a16.44,16.44,0,0,1,12.93,6.16L35.27,130l-2-5.65a33.44,33.44,0,0,0-3.39-6.85c4.31.65,9.46,1.74,10.9,2.92L42.12,119l-3.21-3.53c3.27.28,9.17,1.15,13,3.8l3,2.08L53.35,118l-2.25-5c3.44.57,11,2.19,14.28,5.77L70.19,124,67,117.65,64.2,112m-2-1.85,4,7.92c-4.6-5-16.67-6.35-16.67-6.35l3,6.68c-5.77-4-15.91-4.12-15.91-4.12l4.85,5.34c-2.65-2.18-14.24-3.51-14.24-3.51,2.63,1.54,5.15,8.55,5.15,8.55a17.39,17.39,0,0,0-13.81-6.54,13.67,13.67,0,0,0-2.38.18L22.61,124c-1.94-1.57-5.68-2-8.94-2a48.69,48.69,0,0,0-6,.38l7.17,3.69L.06,128.33,8.85,131c-12.42,4.62-7.93,6.61-2.64,6.61a18.17,18.17,0,0,0,4.67-.56c-2.4,3.88-2.1,5.26-.48,5.26,3.79,0,14.81-7.52,15.49-8.15l0,0h0s0,0,0,0c-1.12,2.92-5.24,6.84-5.24,6.84a9.92,9.92,0,0,0,1.23.07,19.32,19.32,0,0,0,7.73-2c.27.44,3.94,1.42,2.61,2.31h-.41a65.72,65.72,0,0,0-9.49,1.09c2.41.51,5.92,5,5.92,5a14,14,0,0,0-7.61-2.21,15.83,15.83,0,0,0-6.52,1.4l6.35,2.58a5.7,5.7,0,0,0-2-.31c-4.09,0-10.06,2.69-10.06,2.69l6.44,1L3.68,157.82l7.5-.12c-6.31,4.6-6,6.06-3.86,6.06a16.25,16.25,0,0,0,6.77-2.1c-.86,2.87-.57,4,.35,4,2.62,0,10.36-8.88,10.84-9.62v0h0s0,0,0,.05c-.26,2.4-2.64,6.24-2.64,6.24,5.2-.92,10.29-7.22,10.29-7.22l-1.11,4.75a30,30,0,0,0,11.12-10.33l0,8,10.07-11c-.59,4.32-.12,5.9.88,5.9,2.72,0,9.37-11.49,9.92-11.49h0l-1.31,11c.53-.34,9.16-9.71,9.86-9.76-.51,1.9-.33,2.63.25,2.63,2,0,8.36-8,8.85-8h0c-.92,1,.33,1.07,2.55,2.55l-8.25,9.24h0c-1.39,0,8,8.93,10.65,8.93.91,0,1-1-.31-3.82l13.72,11L96.6,151.3h0c.67,0,10,12.51,13.48,12.51,1.35,0,1.78-1.94.4-7.33l13.78,12-1.21-9.87a36.1,36.1,0,0,0,14.93,11l-2-5.69s7.05,7,13.48,7.28c0,0-3.45-4.37-4.1-7.29,0,0,0,0,0,0h0v0c.61.73,10.94,10.26,14.34,10.26,1.28,0,1.58-1.35,0-5a20.45,20.45,0,0,0,7.39,1.58c3.57,0,4.86-1.7-4.44-6.92l9.09-1-14.23-4.62,7.64-2.26a43.6,43.6,0,0,0-10.67-1.82,9.31,9.31,0,0,0-4.27.8l7.3-4.19a18.52,18.52,0,0,0-5.65-.85,17.2,17.2,0,0,0-11.31,4.09s3.58-6.14,6.43-7.15c0,0-2.53-.15-5.52-.15-3.44,0-7.5.2-9.07,1.06l5.62-4.2a45.05,45.05,0,0,0-6.52-.47,25.06,25.06,0,0,0-9.81,1.66c.46-.29,1.74-3.32,2.71-3.32a.48.48,0,0,1,.3.11c-.6-.77.61-1.94,1-2.55a1.81,1.81,0,0,1-.67.13c-1.59,0-2.62-2.21-3.18-3.75a33.45,33.45,0,0,0,14.46,4.51l-2.81-3.39s5.45,2.51,10.37,2.51a12.44,12.44,0,0,0,2.14-.18s-3.69-2.25-4.84-4.06c0,0-.07,0,0,0h0v0c.83.43,9.59,4.16,13,4.16,1.65,0,2.06-.86-.22-3.36a12.81,12.81,0,0,0,1.86.12c4.77,0,11.93-1.84-.53-4.2l7.22-2.36-12.59-.43,5.79-2.91H155c-2.2,0-9.21.15-11.76,2.08l5.12-4.12h-.51c-1.87,0-8.44.37-12.7,5.28.1-.27,1.74-4.75,3.79-5.9,0,0-9.66,1.68-11.75,3.29l3.74-3.82s-8.53.77-13.11,3.81l2.09-4.55s-10.06,1.71-13.61,5.31l2.82-5.43c-.31.12-9.63,3.66-13.34,6.78-.68-.29,1-2.68,1-3a1.9,1.9,0,0,1-1.23.5c-2.28,0-4.06-5-5.16-6.43l.12,4.82c-3.75-8.9-13.45-10-13.45-10L79.84,120c-3.6-4.66-17.25-9.7-17.68-9.85Zm62.53,31.27a.62.62,0,0,0,.14.14.92.92,0,0,0-.14-.14Z"/><path class="cls-3" d="M11.57,171.3c-.14,0-.24,0-.26-.07s-.22-.44.62-2.06l.39-.77-.85,0a2.7,2.7,0,0,0-.43.05l-.17,0,.17-.43-.95.24a28.83,28.83,0,0,1-5.68,1c-.7,0-.86-.13-.86-.13h0c.05,0,.22-.63,3.11-2.54l1.67-1.11-2,.2c-.38,0-.81.09-1.25.14a22.21,22.21,0,0,1-2.48.22,2.6,2.6,0,0,1-.71-.07,4.91,4.91,0,0,1,1.23-1.24l1-.81H4c.46-.27.91-.58,1.36-.89a11.94,11.94,0,0,1,3.79-2l2.86-.81-9.14-.54,13.48-4L9,154.16a43.86,43.86,0,0,1,9.2-1.34,9,9,0,0,1,3.29.49l.4-.92-5.8-2.59a23.16,23.16,0,0,1,4.93-.54,17.36,17.36,0,0,1,10,2.9l2.19,1.5-1.5-2.2a22.07,22.07,0,0,0-4.69-5c1.66-.11,4.22-.25,6.63-.25,3.66,0,5.16.31,5.77.57l.45-.89-4.22-2.52a54.76,54.76,0,0,1,6.69-.44,25.12,25.12,0,0,1,7.86,1l1.66.56-4.27-5.19c.85-.05,2.22-.11,3.81-.11,3.92,0,9.21.36,12.13,2.09l2.86,1.7-6.22-6.86c3.38.42,12.35,1.69,16.28,3.75l.11.06.2,0a.66.66,0,0,0,.6-.39.64.64,0,0,0-.11-.71l-2-2.33h.18c2.66,0,9.23.5,12.84,5.14l1.28,1.65-.81-4.21,1.47,1.36,5.15-4.67-.73,3.72L95.88,138c3.16-4,9-4.41,11.31-4.41h.14l-5.13,5.76,3.48-2.42c2.88-2,11.71-3.21,15.08-3.61l-5.69,6.12,2.87-1.65c2.55-1.47,7.14-1.78,10.55-1.78,1.47,0,2.74.06,3.56.11l-3.85,4.59,1.67-.55a22.46,22.46,0,0,1,6.81-.86,50.46,50.46,0,0,1,6,.39l-3.6,2.09.44.89a15.35,15.35,0,0,1,4.92-.47c2.14,0,4.44.12,6,.23a19.48,19.48,0,0,0-4,4.25l-1.52,2.17,2.2-1.47a15.61,15.61,0,0,1,8.83-2.47,21.92,21.92,0,0,1,4.31.44l-5,2.16.38.93a8,8,0,0,1,2.85-.41,38.91,38.91,0,0,1,8,1.14l-6.53,1.31,12,3.56-7.14.38,1.8.85c5.91,2.76,6.18,3.74,6.18,3.86h0a3.17,3.17,0,0,1-1.57.23,20.31,20.31,0,0,1-6.64-1.28l-1.31-.57.68,1.26c1.1,2.06.9,2.6.84,2.68s-.23.1-.33.1c-2.58,0-11.52-6.61-12.66-7.63l-1.37-1.23.56,1.76a15.76,15.76,0,0,0,3,4.52c-5.14-1-10.54-5.34-10.59-5.39l-1.73-1.38,2.43,5.05a35.85,35.85,0,0,1-12.3-7.87l-1.14-1.21.29,1.64c.08.47.14.91.21,1.33.41,2.61.73,4.66,2.81,5.56l-4.09.83,7.91,2.35-4.6.25,1.81.85c3.05,1.43,3.85,2.14,4.06,2.41a3.05,3.05,0,0,1-.86.09,13.66,13.66,0,0,1-4.47-.87L132.4,162l.67,1.27c.63,1.18.61,1.57.59,1.65h-.1c-1.72,0-7.77-4.48-8.55-5.18l-1.38-1.23.57,1.76a9.92,9.92,0,0,0,1.8,2.78,21.25,21.25,0,0,1-6.72-3.54l-1.72-1.39,1.79,3.72a24.4,24.4,0,0,1-8-5.19l-1.19-1.26,1.06,5.33-8.88-6.38.5,1.48c.76,2.21.52,2.72.46,2.8s0,0-.13,0c-1.28,0-4.86-3.33-6.58-4.94-1.4-1.3-1.54-1.43-1.83-1.43h-.2l-.38.37,1.87,5.53-9.5-6.34L88,154a4.35,4.35,0,0,1,.57,1,14.85,14.85,0,0,1-4.75-2.78,1.59,1.59,0,0,0-2.18.11,33.18,33.18,0,0,1-9.43,6l1-3L63,162.3,65,156l-1.15.7a9.54,9.54,0,0,1-3.55,1.56h-.17l-.22,0-.17.13-1.59,1.2c-1.92,1.47-3.91,3-4.75,3-.12,0-.15,0-.17-.06-.14-.18-.36-.92.47-3.84l.41-1.41L47.68,162l.06-.35-5.59,4.1,1.39-7.34-1.19,1.28a33.33,33.33,0,0,1-11.5,7.5l2.29-4.89-1.71,1.39c-.05,0-5.08,4.14-9.9,5.13a24.37,24.37,0,0,0,1.88-2.45l.62-1-.94.15-.68-.69C20.52,166.47,13.68,171.3,11.57,171.3Z"/><path class="cls-4" d="M119.46,133.94l-2.5,2.69-4.51,4.85,5.74-3.3c1.94-1.12,5.5-1.71,10.3-1.71.95,0,1.82,0,2.53.06L128.94,139l-2.25,2.69L130,140.6a21.87,21.87,0,0,1,6.66-.84c1.62,0,3.17.1,4.43.22l-2.29,1.33.88,1.79c.4-.17,1.54-.44,4.73-.44,1.59,0,3.27.07,4.65.15a22.51,22.51,0,0,0-3.12,3.54l-3,4.34,4.4-2.93a15.08,15.08,0,0,1,8.55-2.39,21.63,21.63,0,0,1,2.55.16L155,147l.77,1.84a7.61,7.61,0,0,1,2.66-.37,31,31,0,0,1,5.54.63l-2.18.44-4,.79,3.86,1.15,7.27,2.15-2.27.13-4,.21,3.61,1.69a26.75,26.75,0,0,1,5.51,3.11,6.47,6.47,0,0,1-.69,0,19.87,19.87,0,0,1-6.44-1.24l-2.62-1.13,1.35,2.52a6.86,6.86,0,0,1,.82,2c-2.46-.21-10.33-5.95-12-7.32l0-.12-.32-.19-.28-.17h-1l-.25.64a1,1,0,0,0,.1.9,13.3,13.3,0,0,0,2,3.31,32,32,0,0,1-8.88-4.9l-3.44-2.75,1.91,4,.92,1.9A35.54,35.54,0,0,1,132.14,149l-2.27-2.41.56,3.27c.08.46.15.9.22,1.32.33,2.11.63,4,2,5.24l-.91.19-3.93.79,3.84,1.14,3.21,1-3.7.2,3.61,1.69a29,29,0,0,1,2.92,1.53,13.19,13.19,0,0,1-3.77-.81L131.28,161l1.35,2.52a5.8,5.8,0,0,1,.38.81c-1.88-.64-6.26-3.78-7.46-4.76l0-.11-.32-.19-.26-.16h-1l-.25.64a1,1,0,0,0,.08.88,7.15,7.15,0,0,0,.81,1.46,22.72,22.72,0,0,1-5-2.94l-3.45-2.77,1.92,4,.25.52a23.92,23.92,0,0,1-6.59-4.55l-2.39-2.53.68,3.41.47,2.38-6.58-4.73L101.37,153l1,3a8.28,8.28,0,0,1,.51,2.11c-.91-.32-2.91-1.91-6-4.74-1.52-1.42-1.67-1.57-2.17-1.57h-.42l-.29.28-.45.44.2.6L95.12,157,89,152.86,84.72,150l2.73,4a19.19,19.19,0,0,1-3.31-2.2,2.07,2.07,0,0,0-1.35-.5,2.1,2.1,0,0,0-1.51.65A33,33,0,0,1,73,157.43l.18-.54.91-2.79-2.43,1.65-7.78,5.31,1.18-3.59.83-2.56-2.3,1.39c-.61.37-2.47,1.49-3.29,1.49h-.08l-.43-.09-.35.27-1.59,1.2A22.86,22.86,0,0,1,53.63,162a10.1,10.1,0,0,1,.59-3.23L55,156l-2.36,1.73-4.27,3.12.07-.34-2,1.48-3.56,2.6.83-4.37.65-3.43L42,159.34a33,33,0,0,1-10.15,6.91l.82-1.76,1.87-4-3.41,2.8a29.83,29.83,0,0,1-8.22,4.63c.32-.41.64-.85.93-1.3l1.24-1.9-2.25.37-.11,0-.62-.63c-1.84,1.56-8.14,6-10.28,6.29a6.55,6.55,0,0,1,.56-1.39l.79-1.52-1.51.06.23-.57-1.92.48a29.48,29.48,0,0,1-5.37,1,18.58,18.58,0,0,1,2.34-1.75l3.35-2.22-4,.39L5,165.36c-.72.09-1.47.19-2.08.21l.49-.41L4.92,164l.7-.48a11.55,11.55,0,0,1,3.64-1.89L15,160l-5.94-.35-3.36-.2,8.9-2.67,3.76-1.13-3.84-.81-3.16-.66a36.43,36.43,0,0,1,6.83-.83,8.39,8.39,0,0,1,3.1.45l.79-1.84L17.75,150a23.5,23.5,0,0,1,3.25-.24,16.84,16.84,0,0,1,9.73,2.81l4.4,3-3-4.4a24,24,0,0,0-3.75-4.29c1.54-.09,3.46-.17,5.28-.17,3.77,0,5.11.33,5.58.53l.9-1.78-3-1.76c1.42-.14,3.24-.27,5.16-.27a24.67,24.67,0,0,1,7.7,1l3.32,1.13-2.23-2.71-2.53-3.07c.78,0,1.74-.06,2.8-.06,5.46,0,9.67.72,11.88,2L69,145.14l-4.46-4.92-3.08-3.39c4,.54,11.34,1.72,14.77,3.52a1.14,1.14,0,0,0,.54.14,1.17,1.17,0,0,0,.87-1.93l-1.3-1.48c3,.12,8.4.93,11.51,4.93l2.57,3.29-.8-4.1-.12-.66h0l.67.63.68-.62,3.7-3.35,0,.25-.78,4,2.55-3.19c2.65-3.34,7.28-4.07,9.92-4.2l-1.55,1.74L99,142.15l7-4.85c2.32-1.62,9.11-2.79,13.5-3.36m2.58-1.3s-12.93,1.24-16.65,3.84l3-3.39s-.46,0-1.22,0c-2.54,0-8.43.47-11.71,4.6l.62-3.2-5.92,5.37-2.25-2.09.7,3.66c-3.74-4.81-10.46-5.33-13.23-5.33-.78,0-1.25,0-1.25,0l2.73,3.12a.17.17,0,0,1-.12.27l-.08,0c-5-2.64-17.77-4-17.77-4l4.88,5.38c-3-1.79-8.44-2.16-12.39-2.16-2.77,0-4.81.18-4.81.18l3.77,4.59a25.84,25.84,0,0,0-8-1.06,55.2,55.2,0,0,0-8.16.64l5.44,3.25a19.52,19.52,0,0,0-6-.61c-4.06,0-8.5.38-8.5.38,2.79.72,6.15,5.64,6.15,5.64a18.06,18.06,0,0,0-10.3-3,22.52,22.52,0,0,0-6.44.91l7.1,3.18a9.37,9.37,0,0,0-3.48-.53,50.74,50.74,0,0,0-11.39,1.89l7.51,1.58L0,160.09l9,.53c-3.3.93-4.55,3.08-7.2,3.7l1,.06c-2.17,1.76-1.59,2.2-.2,2.2,1.08,0,2.63-.26,3.78-.37-4.2,2.78-3.82,3.59-2,3.59a29.24,29.24,0,0,0,5.8-1c-.08.18.07.24.3.24s.76-.1,1-.11c-1.08,2.08-.85,2.86.09,2.86,2.43,0,9.64-5.26,11.15-6.55-.51.6-.88,1-.88,1,.38,0,.76-.08,1.14-.14a27.38,27.38,0,0,1-2.76,3.41c5.4-.4,11.52-5.43,11.52-5.43l-1.86,4a33.37,33.37,0,0,0,12.83-8l-1.3,6.87,5.6-4.11-.06.35,6.29-4.61c-1,3.34-.75,4.54.18,4.54,1.25,0,3.83-2.2,6.64-4.29l.26,0a9.62,9.62,0,0,0,3.81-1.63l-2.09,6.38,10.21-7-.84,2.58A33.55,33.55,0,0,0,82,152.69a1.1,1.1,0,0,1,.79-.34,1.08,1.08,0,0,1,.7.26c1.43,1.22,4.17,2.92,5.2,2.92.57,0,.63-.5-.28-1.84l8.6,5.74-2.25-6.63h0c.35,0,6.34,6.37,8.42,6.37.79,0,1-.93.14-3.5l8.64,6.21L111,157a24.64,24.64,0,0,0,9.34,5.73L119,159.91s4.45,3.58,8.37,3.88a13.71,13.71,0,0,1-2.66-3.66l0,0h0v0c.53.47,6.88,5.3,8.88,5.3.74,0,.89-.65-.05-2.4a14.26,14.26,0,0,0,4.67.91c2,0,2.61-.84-3-3.46l5.49-.29-8.75-2.6,4.58-.93c-4.51-.16-4.36-2.77-5.09-7a36.05,36.05,0,0,0,13.63,8.39l-2-4.15s6.52,5.24,12.23,5.69c0,0-3.2-3.25-3.88-5.37,0,0-.06-.05,0-.05l0,0v0c.76.69,10.06,7.76,13,7.76,1.07,0,1.3-.95-.07-3.51a20.74,20.74,0,0,0,6.83,1.32c2.92,0,3.79-1.21-4.4-5l8.05-.44L162,150.54l6.72-1.35a46.27,46.27,0,0,0-10.27-1.7,8.62,8.62,0,0,0-3,.44l6.34-2.74a20.73,20.73,0,0,0-5.86-.82,16.29,16.29,0,0,0-9.1,2.55s3-4.27,5.46-4.9c0,0-4.12-.36-7.82-.36a16.94,16.94,0,0,0-5.11.51l4.85-2.82a50.84,50.84,0,0,0-7.49-.59,23.18,23.18,0,0,0-7,.89l3.35-4s-2-.18-4.57-.18c-3.5,0-8.16.33-10.8,1.84l4.35-4.67Z"/><path class="cls-5" d="M121.56,164.22c0-11.07-2.35-21-6.08-27.75,3.73-6.75,6.08-16.68,6.08-27.76h36.59c0,11.08,2.36,21,6.08,27.76-3.72,6.75-6.08,16.68-6.08,27.75Z"/><path class="cls-6" d="M129,164.22c0-11.07-1.4-21-3.62-27.75,2.22-6.75,3.62-16.68,3.62-27.76h21.74c0,11.08,1.4,21,3.61,27.76-2.21,6.75-3.61,16.68-3.61,27.75Z"/><path class="cls-6" d="M136.78,164.22c0-11.07-.4-21-1-27.75.63-6.75,1-16.68,1-27.76h6.16c0,11.08.39,21,1,27.76-.63,6.75-1,16.68-1,27.75Z"/><path class="cls-5" d="M136.78,164.22c0-11.07-.4-21-1-27.75.63-6.75,1-16.68,1-27.76h6.16c0,11.08.39,21,1,27.76-.63,6.75-1,16.68-1,27.75Z"/><rect class="cls-6" x="119.05" y="103.62" width="41.62" height="9.4"/><rect class="cls-6" x="119.05" y="159.88" width="41.62" height="9.4"/><line class="cls-6" x1="139.86" y1="103.62" x2="139.86" y2="39.89"/><path class="cls-6" d="M234.06,281.87s71.9,11.37,100.47-58.2C334.53,223.67,251.82,261.91,234.06,281.87Z"/><path class="cls-6" d="M299.91,254.13s-21,20.07-65.85,27.74C234.06,281.87,284.44,265.72,299.91,254.13Z"/><path class="cls-6" d="M222.66,274.58s-11.14-54.21-68.3-55.93C154.36,218.65,203.71,267.29,222.66,274.58Z"/><path class="cls-6" d="M185.3,235.14s19.89,9.55,37.36,39.44C222.66,274.58,197.69,243.05,185.3,235.14Z"/><path class="cls-6" d="M236,244.1s-20.7-51.34-77.24-42.77C158.79,201.33,216.07,240.33,236,244.1Z"/><path class="cls-6" d="M192.2,212s21.28,5.83,43.83,32.1C236,244.1,205.8,217.56,192.2,212Z"/><path class="cls-6" d="M254.18,213.41s-20.7-51.33-77.24-42.76C176.94,170.65,234.22,209.64,254.18,213.41Z"/><path class="cls-6" d="M210.35,181.31s21.28,5.83,43.83,32.1C254.18,213.41,224,186.87,210.35,181.31Z"/><path class="cls-6" d="M250.09,171.16S221.4,123.83,167,141.39C167,141.39,229.79,170.65,250.09,171.16Z"/><path class="cls-6" d="M201.66,146.54s22,2.32,48.43,24.62C250.09,171.16,216,149.83,201.66,146.54Z"/><path class="cls-6" d="M239.38,132.33s-30.89-32.63-71-9.36C168.33,123,223.18,135.41,239.38,132.33Z"/><path class="cls-6" d="M196.73,121.1s17.81-1.92,42.65,11.23C239.38,132.33,208.66,121.26,196.73,121.1Z"/><path class="cls-6" d="M218.65,99.5S183.24,71.85,147,100.85C147,100.85,203.1,105,218.65,99.5Z"/><path class="cls-6" d="M174.81,94.77s17.32-4.56,43.84,4.73C218.65,99.5,186.63,93.15,174.81,94.77Z"/><path class="cls-6" d="M193.51,71.66s-38.44-23.24-71,9.86C122.53,81.52,178.72,78.94,193.51,71.66Z"/><path class="cls-6" d="M149.42,72.18s16.65-6.59,44.09-.52C193.51,71.66,161,69.16,149.42,72.18Z"/><path class="cls-6" d="M161.53,52.18S121.27,32.23,91.62,68C91.62,68,147.39,60.67,161.53,52.18Z"/><path class="cls-6" d="M117.63,56.38s16.05-8,43.9-4.2C161.53,52.18,128.88,52.41,117.63,56.38Z"/><path class="cls-6" d="M248.65,249.57s1.48-.21,4-.77c14.92-3.27,66.53-18.57,76.82-75.2C329.52,173.6,258.42,221.45,248.65,249.57Z"/><path class="cls-6" d="M296.08,213.38s-28.73,28.72-47.43,36.19C248.65,249.57,290.72,218,296.08,213.38Z"/><path class="cls-6" d="M254.92,205.26s1.18-.5,3.18-1.55c11.59-6.08,50.78-30.42,46.46-79.56C304.56,124.15,256.63,179.81,254.92,205.26Z"/><path class="cls-6" d="M285.93,164.61s-17.24,30.24-31,40.65C254.92,205.26,282.54,169.61,285.93,164.61Z"/><path class="cls-6" d="M251.1,170.49s1-.77,2.72-2.25c9.85-8.63,42.26-41.46,26.57-88.22C280.39,80,246.81,145.34,251.1,170.49Z"/><path class="cls-6" d="M271.74,123.71s-9.69,33.44-20.64,46.78C251.1,170.49,269.61,129.37,271.74,123.71Z"/><path class="cls-6" d="M239.65,131.47s.71-.86,1.83-2.48c6.5-9.38,27-44,4.3-79.58C245.78,49.41,230.92,111.41,239.65,131.47Z"/><path class="cls-6" d="M247.43,87.83s-1.31,30.08-7.78,43.64C239.65,131.47,246.8,93,247.43,87.83Z"/><path class="cls-6" d="M222.34,98.1s.48-.94,1.2-2.65c4.14-9.9,16.23-45.73-11.62-74C211.92,21.41,210.39,81.35,222.34,98.1Z"/><path class="cls-6" d="M221,56.43s4.68,27.92,1.38,41.67C222.34,98.1,221.4,61.33,221,56.43Z"/><path class="cls-6" d="M192.74,69.27s.22-.93.49-2.59c1.55-9.64,4.59-43.9-26.07-63C167.16,3.7,178.6,57,192.74,69.27Z"/><path class="cls-6" d="M182.62,32.73s10.1,23.68,10.12,36.54C192.74,69.27,184.05,37,182.62,32.73Z"/><path class="cls-6" d="M164.48,50.77s0-.85-.19-2.33C163.34,39.86,157.82,10,126.7.81,126.7.81,149.31,43.61,164.48,50.77Z"/><path class="cls-6" d="M147,22s14.39,17.84,17.47,28.8C164.48,50.77,149.26,25.25,147,22Z"/><path class="cls-4" d="M212.65,288.75c1.14-.9,2.4-2,3.55-3.12s2.31-2.26,3.42-3.44c2.23-2.37,4.33-4.86,6.33-7.42a112.92,112.92,0,0,0,10.58-16.45,123,123,0,0,0,12.45-37,132.37,132.37,0,0,0,1.82-19.58A147.21,147.21,0,0,0,250,182a196.54,196.54,0,0,0-8.26-38.63L241,141l-.83-2.33c-.58-1.54-1.11-3.1-1.71-4.64l-1.87-4.57c-.61-1.53-1.35-3-2-4.51A140.3,140.3,0,0,0,225,107.66a141.83,141.83,0,0,0-25.85-29.74,205.34,205.34,0,0,0-32.47-22.74c-11.48-6.66-23.4-12.58-35.33-18.52a1.1,1.1,0,0,1,1-2c12,5.83,24,11.68,35.62,18.28a208,208,0,0,1,33.1,22.76,145.32,145.32,0,0,1,26.68,30.17,146.83,146.83,0,0,1,9.86,17.62c.69,1.54,1.46,3,2.1,4.6l2,4.65c.63,1.56,1.19,3.15,1.78,4.73l.88,2.37.78,2.39a200.27,200.27,0,0,1,8.77,39.33,153,153,0,0,1,1,20.2A136.72,136.72,0,0,1,253.22,222a127.34,127.34,0,0,1-12.57,38.51,118.34,118.34,0,0,1-10.87,17.23c-2.07,2.7-4.25,5.32-6.57,7.83-1.16,1.25-2.34,2.49-3.59,3.67s-2.46,2.33-3.93,3.51a2.5,2.5,0,0,1-3.13-3.9h0Z"/><path class="cls-6" d="M133.27,36.64S95.71,45.44,86,26.78C86,26.78,137.47-2.65,133.27,36.64Z"/><path class="cls-6" d="M130.64,34.09s-15.11-11.71-27.54-8.88C103.1,25.21,128.35,16.91,130.64,34.09Z"/></g></g></svg>